<?xml version="1.0" encoding="UTF-8"?>
<svg width="25px" height="25px" viewBox="0 0 25 25" version="1.1" xmlns="http://www.w3.org/2000/svg" xmlns:xlink="http://www.w3.org/1999/xlink">
    <!-- Generator: Sketch 55.2 (78181) - https://sketchapp.com -->
    <title>behance</title>
    <desc>Created with Sketch.</desc>
    <g id="Page-1" stroke="none" stroke-width="1" fill="none" fill-rule="evenodd">
        <g id="HomePage-Copy" transform="translate(-636.000000, -3141.000000)" fill-rule="nonzero" stroke="#000000">
            <g id="Contact" transform="translate(-1.000000, 0.000000)">
                <g transform="translate(566.000000, 3012.000000)" id="Logos">
                    <g transform="translate(1.000000, 130.000000)">
                        <g id="behance" transform="translate(71.000000, 0.000000)">
                            <path d="M11.5,0 L11.5,0 C5.14874363,0 0,5.14871668 0,11.5 C0,17.8512564 5.14871668,23 11.5,23 C17.8512564,23 23,17.8512833 23,11.5 L23,11.5 C23,5.14874414 17.8512833,0 11.5,0 L11.5,0 Z" id="Path" stroke-width="1.6"></path>
                            <path d="M14.6995458,10.1123486 L14.6995459,10.1123486 C14.0092259,10.1095466 13.4473406,10.6668896 13.4445296,11.3572066 C13.4443806,11.3964574 13.4460702,11.4356937 13.4496031,11.4747851 L16.0244841,11.4747851 L16.0244841,11.4747851 C16.0880393,10.7873915 15.5823208,10.1786303 14.8949275,10.1150737 C14.8299711,10.1090679 14.7646438,10.1081564 14.6995451,10.1123475 L14.6995458,10.1123486 Z M8.1123574,11.4997821 L6.57492784,11.4997821 L6.57492784,13.924673 L7.82487155,13.924673 C9.07481525,13.924673 9.62478908,13.5121919 9.62478908,12.6747293 C9.62478908,11.8372666 9.04981445,11.4997821 8.1123574,11.4997821 L8.1123574,11.4997821 Z M9.19980757,9.274886 C9.19980757,8.61241733 8.76232859,8.21243371 8.01236296,8.21243371 L6.57492784,8.21243371 L6.57492784,10.3873341 L7.63738014,10.3873341 C8.74982819,10.3873341 9.19980757,9.98735336 9.19980757,9.274886 L9.19980757,9.274886 Z M8.37484537,15.1246281 L5,15.1246281 L5,7 L8.37484537,7 C9.83727837,7 10.7997333,7.76246604 10.7997333,8.99990934 L10.7997333,8.99990923 C10.8353657,9.85866383 10.2420752,10.6161672 9.39979645,10.7873264 L9.39979651,10.7873264 C10.448808,10.811642 11.2794887,11.6817453 11.2551705,12.7307568 C11.2543468,12.7662929 11.252526,12.8017988 11.2497102,12.8372329 C11.2497102,14.2871655 9.99976648,15.1246281 8.37484288,15.1246281 L8.37484537,15.1246281 Z M12.8121518,7.6249616 L16.56198,7.6249616 L16.56198,8.24993199 L12.8121518,8.24993199 L12.8121518,7.6249616 Z M17.4994371,12.4372509 L13.3746261,12.4372509 L13.3746261,12.6122428 L13.374626,12.6122429 C13.2915556,13.3462044 13.8192063,14.0085383 14.5531677,14.0916087 C14.6142085,14.0985174 14.6756527,14.1012122 14.7370637,14.0996743 L14.7370636,14.0996743 C15.291839,14.1858676 15.8252345,13.8498285 15.9870073,13.3122104 L17.499439,13.3122104 L17.499439,13.3122106 C17.2205944,14.5544964 16.0526351,15.3887541 14.7870623,15.2496208 L14.7870624,15.2496208 C13.3103771,15.39875 11.9923916,14.3225519 11.8432715,12.8458667 C11.8274609,12.6893093 11.8254311,12.5316662 11.8372056,12.3747535 L11.8372056,11.8247797 L11.8372057,11.8247805 C11.7355329,10.3717485 12.8310244,9.11141362 14.2840565,9.00974055 C14.4182669,9.00034945 14.5529991,9.00124168 14.6870722,9.01240941 L14.6870722,9.0124094 C16.1475629,8.91878293 17.4074232,10.0268434 17.5010488,11.4873341 C17.508787,11.608044 17.5082512,11.7291423 17.4994451,11.8497784 L17.4994371,12.4372509 Z" id="Shape" stroke-width="0.2" fill="#000000"></path>
                        </g>
                    </g>
                </g>
            </g>
        </g>
    </g>
</svg>