<?xml version="1.0" encoding="UTF-8"?>
<svg width="50px" height="50px" viewBox="0 0 50 50" version="1.1" xmlns="http://www.w3.org/2000/svg" xmlns:xlink="http://www.w3.org/1999/xlink">
    <!-- Generator: Sketch 55.1 (78136) - https://sketchapp.com -->
    <title>dribble 1</title>
    <desc>Created with Sketch.</desc>
    <defs>
        <rect id="path-1" x="0" y="0" width="34" height="34"></rect>
        <filter x="-39.7%" y="-30.9%" width="179.4%" height="179.4%" filterUnits="objectBoundingBox" id="filter-2">
            <feOffset dx="0" dy="3" in="SourceAlpha" result="shadowOffsetOuter1"></feOffset>
            <feGaussianBlur stdDeviation="4" in="shadowOffsetOuter1" result="shadowBlurOuter1"></feGaussianBlur>
            <feColorMatrix values="0 0 0 0 0.816491168   0 0 0 0 0.816491168   0 0 0 0 0.816491168  0 0 0 0.5 0" type="matrix" in="shadowBlurOuter1"></feColorMatrix>
        </filter>
    </defs>
    <g id="Page-1" stroke="none" stroke-width="1" fill="none" fill-rule="evenodd">
        <g id="HomePage-Copy" transform="translate(-139.000000, -590.000000)">
            <g id="upper" transform="translate(0.000000, -60.000000)">
                <g id="Icons" transform="translate(63.000000, 655.000000)">
                    <g id="dribble-1" transform="translate(84.000000, 0.000000)">
                        <g id="Rectangle-Copy">
                            <use fill="black" fill-opacity="1" filter="url(#filter-2)" xlink:href="#path-1"></use>
                            <use fill="#FFFFFF" fill-rule="evenodd" xlink:href="#path-1"></use>
                        </g>
                        <path d="M20.9997083,26.4379466 C20.5621992,23.9272267 19.8330164,21.3333911 18.8121628,18.6564095 L18.7806621,18.6564095 L18.7491614,18.6721598 C18.5823247,18.7345779 18.3583209,18.8206212 18.0771474,18.9302902 C17.795974,19.0399593 17.2697982,19.2951728 16.4986146,19.6959312 C15.7274309,20.0966895 15.0140012,20.5236984 14.35832,20.9769579 C13.7026387,21.4302173 13.0204171,22.0266871 12.3116523,22.7663701 C11.6028876,23.5060531 11.0665014,24.2769442 10.7024938,25.0790433 L10.4679889,24.9075397 C12.3848613,26.4703223 14.5618984,27.2517136 16.999125,27.2517136 C18.3740712,27.2517136 19.7073064,26.9807497 20.9988333,26.4388216 L20.9997083,26.4379466 Z M18.1086481,16.952749 C17.8898935,16.4423208 17.6139702,15.8642263 17.2808809,15.2184629 C14.0409891,16.1874006 10.5356661,16.6718682 6.76491177,16.6718682 C6.75441155,16.7447864 6.74916144,16.8541637 6.74916144,17 C6.74916144,18.2915269 6.97841622,19.52326 7.43692577,20.695202 C7.89543532,21.867144 8.54119877,22.9165807 9.37421613,23.8435176 C9.89514456,22.9165807 10.538283,22.0494376 11.3036313,21.2420884 C12.0689797,20.4347391 12.8112877,19.7863506 13.5305527,19.2969229 C14.2498177,18.8074951 14.9294143,18.3857363 15.5693452,18.0316465 C16.2092761,17.6775567 16.7275767,17.4275913 17.1242526,17.2817559 L17.7026396,17.0787516 C17.7440573,17.0682514 17.8117252,17.049876 17.9056439,17.0236255 C17.9995626,16.9973749 18.0672305,16.9740412 18.1086481,16.953624 L18.1086481,16.952749 Z M16.4364883,13.640805 C15.1863798,11.4217588 13.9155607,9.45296777 12.6240338,7.73443197 C11.1866715,8.41169608 9.96777107,9.38034126 8.96733265,10.6403675 C7.96689423,11.9003938 7.30013034,13.3170483 6.96704098,14.890331 C10.1130323,14.890331 13.2692231,14.4735298 16.4356132,13.63993 L16.4364883,13.640805 Z M27.1248359,18.6249089 C24.9372904,18.0001458 22.8069218,17.8490603 20.7337028,18.1716494 C21.6402217,20.6613689 22.3069856,23.1041272 22.7339945,25.4999271 C23.8901861,24.7188284 24.853871,23.7318078 25.6250547,22.5388654 C26.3962383,21.345923 26.8961636,20.0412708 27.1248359,18.6249089 L27.1248359,18.6249089 Z M14.6192961,7.06299238 C14.5845134,7.06299238 14.5497308,7.08302716 14.5149482,7.12309673 C14.5497308,7.08302716 14.5845134,7.06299238 14.6192961,7.06299238 Z M23.7647659,9.31208984 C21.8373934,7.60347182 19.5821788,6.74916144 16.999125,6.74916144 C16.2075261,6.74916144 15.4001741,6.8480385 14.5770745,7.04579262 C15.9415205,8.81682952 17.2228371,10.8063202 18.4210296,13.014292 C19.1397122,12.7436196 19.8166837,12.4286122 20.4519469,12.0692723 C21.0872102,11.7099324 21.5897632,11.3896757 21.9596033,11.1085023 C22.3294435,10.8273288 22.6707006,10.5304078 22.9833747,10.2177337 C23.2960487,9.90505961 23.4914677,9.69418022 23.5696369,9.58509552 L23.7647659,9.31208984 Z M27.2499635,16.8906227 C27.2184629,14.4738224 26.4423217,12.3384771 24.92154,10.4846143 L24.9057897,10.5003646 C24.811871,10.6252004 24.7129939,10.7529531 24.6091585,10.8836226 C24.5053231,11.0142921 24.2786942,11.2461727 23.9292694,11.5792621 C23.5798445,11.9123514 23.2100044,12.227358 22.8197462,12.5242818 C22.4294881,12.8212055 21.9085597,13.1598376 21.2569637,13.5401779 C20.6053677,13.9205183 19.9205183,14.2565253 19.2024209,14.5481989 C19.4625931,15.1000428 19.6918487,15.5947207 19.8901852,16.0322298 C19.9111856,16.0841477 19.9450196,16.172816 19.9916873,16.2982354 C20.0383551,16.4236548 20.0774391,16.5123231 20.1089398,16.5642409 C20.48403,16.5123231 20.8719557,16.4758641 21.272714,16.4548636 C21.6734724,16.4338632 22.0564378,16.423363 22.421613,16.423363 C22.7867881,16.423363 23.146128,16.4312382 23.4996354,16.4469885 C23.8531428,16.4627388 24.1865247,16.4834475 24.4997812,16.5091148 C24.8130378,16.534782 25.1073365,16.5633659 25.3826746,16.5948666 C25.6580128,16.6263672 25.9079782,16.6602012 26.1325653,16.6963687 C26.3571532,16.7325362 26.5473239,16.7637451 26.7030771,16.7899956 C26.8588304,16.8162462 26.9889155,16.8395799 27.0933353,16.8599971 L27.2499635,16.8906227 Z M29,17 C29,19.1770454 28.4636138,21.1849114 27.3908415,23.0236255 C26.3180691,24.8623314 24.8623314,26.3180691 23.0236255,27.3908415 C21.1849196,28.4636138 19.1770454,29 17,29 C14.8229546,29 12.8150886,28.4636138 10.9763745,27.3908415 C9.13766862,26.3180691 7.68193087,24.8623314 6.60915852,23.0236255 C5.53638617,21.1849196 5,19.1770454 5,17 C5,14.8229546 5.53638617,12.8150886 6.60915852,10.9763745 C7.68193087,9.13766862 9.13766862,7.68193087 10.9763745,6.60915852 C12.8150804,5.53638617 14.8229546,5 17,5 C19.1770454,5 21.1849114,5.53638617 23.0236255,6.60915852 C24.8623314,7.68193087 26.3180691,9.13766862 27.3908415,10.9763745 C28.4636138,12.8150804 29,14.8229546 29,17 Z" id="Shape" fill="#FFDC0B"></path>
                    </g>
                </g>
            </g>
        </g>
    </g>
</svg>