<?xml version="1.0" encoding="UTF-8"?>
<svg width="24px" height="24px" viewBox="0 0 24 24" version="1.1" xmlns="http://www.w3.org/2000/svg" xmlns:xlink="http://www.w3.org/1999/xlink">
    <title>Instagram</title>
    <g id="Page-1" stroke="none" stroke-width="1" fill="none" fill-rule="evenodd">
        <g id="HomePage-Copy-2" transform="translate(-558.000000, -2901.000000)" fill="#000000" fill-rule="nonzero">
            <g id="Contact" transform="translate(0.000000, -1.000000)">
                <g transform="translate(486.000000, 2772.000000)" id="Logos">
                    <g transform="translate(1.000000, 130.000000)">
                        <path d="M83,0 C79.7405002,0 79.3325001,0.0150000778 78.0530001,0.0720000778 C76.7750001,0.132000078 75.9050001,0.333000078 75.1400001,0.630000078 L75.1400001,0.630000088 C74.3391618,0.931272744 73.6137688,1.40377743 73.0145,2.01450009 C72.347,2.68050009 71.9345,3.34950009 71.63,4.14000009 C71.333,4.90500009 71.1305,5.77500009 71.072,7.05300009 C71.012,8.33250009 71,8.74050009 71,12 C71,15.2595001 71.015,15.6675001 71.072,16.9470001 C71.132,18.2235001 71.333,19.0950001 71.63,19.8600001 C71.936,20.6475001 72.347,21.3195001 73.0145,21.9855001 C73.6805,22.6515001 74.3495,23.0655001 75.1400001,23.3700001 C75.9050001,23.6655001 76.7750001,23.8695001 78.0530001,23.9280001 C79.3325001,23.9880001 79.7405001,24 83,24 C86.2595002,24 86.6675002,23.9850001 87.9470002,23.9280001 C89.2235003,23.8680001 90.0950003,23.6655001 90.8600003,23.3700001 L90.8599999,23.3700002 C91.6605312,23.0681252 92.3858023,22.5957002 92.9855,21.9855002 C93.6515,21.3195002 94.0655,20.6505002 94.37,19.8600002 C94.6655,19.0950002 94.8695,18.2250002 94.928,16.9470002 C94.988,15.6675002 95,15.2595002 95,12 C95,8.74050022 94.985,8.33250022 94.928,7.05300022 C94.868,5.77650022 94.6655,4.90350022 94.37,4.14000022 L94.37,4.14000014 C94.0683828,3.33933764 93.5959226,2.61401264 92.9854999,2.01450014 L92.9855,2.01450023 C92.3868524,1.40302289 91.6612789,0.930401016 90.8600024,0.630000234 C90.0950023,0.333000234 89.2250023,0.130500234 87.9470023,0.0720002344 C86.6675023,0.012 86.2595023,0 83,0 L83,0 Z M83.0000002,2.16000008 C86.2025002,2.16000008 86.5850002,2.17500008 87.8495003,2.23050008 C89.0195003,2.28600008 89.6555003,2.47950008 90.0770003,2.64600008 C90.6395003,2.86350008 91.0370003,3.12300008 91.4585003,3.54150008 C91.8785003,3.96150008 92.1380003,4.36050008 92.3555003,4.92300008 C92.5190003,5.34450008 92.7155003,5.98050008 92.7680003,7.15050008 C92.8250003,8.41650008 92.8385003,8.79600008 92.8385003,12.0000001 C92.8385003,15.2040001 92.8235003,15.5850001 92.7635003,16.8495001 C92.7035003,18.0195001 92.5085003,18.6555001 92.3435003,19.0770001 C92.1185003,19.6395001 91.8635003,20.0370001 91.4435003,20.4585001 C91.0250003,20.8785001 90.6200003,21.1380001 90.0635003,21.3555001 C89.6435003,21.5190001 88.9985003,21.7155001 87.8285003,21.7680001 C86.5550002,21.8250001 86.1800002,21.8385001 82.9700002,21.8385001 C79.7600002,21.8385001 79.3850001,21.8235001 78.1100001,21.7635001 C76.9400001,21.7035001 76.2950001,21.5085001 75.8750001,21.3435001 C75.3050001,21.1185001 74.9150001,20.8635001 74.4950001,20.4435001 L74.495,20.4435 C74.0936093,20.0582179 73.785746,19.5861609 73.5949999,19.0635 C73.4299999,18.6435 73.2364999,17.9985 73.1749999,16.8285 C73.1299999,15.5685 73.1149999,15.18 73.1149999,11.985 C73.1149999,8.78999996 73.1299999,8.39999996 73.1749999,7.12499996 C73.2364999,5.95499996 73.4299999,5.30999996 73.5949999,4.88999996 C73.8049999,4.31999996 74.075,3.92999996 74.495,3.50999996 C74.915,3.08999996 75.305,2.81999996 75.875,2.60999996 C76.295,2.44499996 76.925,2.24999996 78.095,2.18999996 C79.37,2.14499996 79.745,2.12999996 82.9550001,2.12999996 L83.0000001,2.15999996 L83.0000002,2.16000008 Z M83.0000002,5.83800008 L83.0000001,5.83800008 C79.5972266,5.78490476 76.7957188,8.50035945 76.7426094,11.9031095 C76.6895141,15.3058829 79.4049688,18.1073907 82.8077189,18.1605001 C82.8718066,18.1615001 82.9359063,18.1615001 82.999994,18.1605001 L82.9999939,18.1605001 C86.4027674,18.1074048 89.1182128,15.3058829 89.0651034,11.9031095 C89.013176,8.57519539 86.327908,5.88991414 82.9999939,5.83800008 L83.0000002,5.83800008 Z M83.0000002,16.0005001 L83,16.0005001 C80.7905844,16.0005001 78.9995,14.2094157 78.9995,12.0000001 C78.9995,9.79058445 80.7905844,7.99950008 83,7.99950008 L82.9999999,7.99950008 C85.2094156,7.99950008 87.0005,9.79058445 87.0005,12.0000001 C87.0005,14.2094157 85.2094156,16.0005001 82.9999999,16.0005001 C82.9999999,16.0005001 82.9999998,16.0005001 82.9999998,16.0005001 L83.0000002,16.0005001 Z M90.8450005,5.59500008 L90.8450005,5.59495322 C90.844612,6.39024384 90.1995878,7.03463916 89.4042972,7.03425027 C88.6090065,7.03386177 87.9646112,6.38883759 87.9650001,5.59354697 C87.9650001,5.59354695 87.9650001,5.59354696 87.9650001,5.59354694 L87.9650001,5.59359396 C87.9653885,4.79830333 88.6104128,4.15390802 89.4057034,4.15429691 C90.200994,4.15468534 90.8453894,4.79970958 90.8450005,5.59500021 L90.8450005,5.59500008 Z" id="Instagram"></path>
                    </g>
                </g>
            </g>
        </g>
    </g>
</svg>