<?xml version="1.0" encoding="UTF-8"?>
<svg width="50px" height="50px" viewBox="0 0 50 50" version="1.1" xmlns="http://www.w3.org/2000/svg" xmlns:xlink="http://www.w3.org/1999/xlink">
    <title>dribble 1 copy 2</title>
    <defs>
        <rect id="path-1" x="0" y="0" width="34" height="34"></rect>
        <filter x="-39.7%" y="-30.9%" width="179.4%" height="179.4%" filterUnits="objectBoundingBox" id="filter-2">
            <feOffset dx="0" dy="3" in="SourceAlpha" result="shadowOffsetOuter1"></feOffset>
            <feGaussianBlur stdDeviation="4" in="shadowOffsetOuter1" result="shadowBlurOuter1"></feGaussianBlur>
            <feColorMatrix values="0 0 0 0 0.816491168   0 0 0 0 0.816491168   0 0 0 0 0.816491168  0 0 0 0.5 0" type="matrix" in="shadowBlurOuter1"></feColorMatrix>
        </filter>
    </defs>
    <g id="Page-1" stroke="none" stroke-width="1" fill="none" fill-rule="evenodd">
        <g id="HomePage-Copy-2" transform="translate(-223.000000, -590.000000)">
            <g id="dribble-1-copy-2" transform="translate(231.000000, 595.000000)">
                <g id="Rectangle-Copy">
                    <use fill="black" fill-opacity="1" filter="url(#filter-2)" xlink:href="#path-1"></use>
                    <use fill="#FFFFFF" fill-rule="evenodd" xlink:href="#path-1"></use>
                </g>
                <g id="instagram" transform="translate(6.000000, 5.000000)" fill="#FFDC0B">
                    <path d="M22.3430066,6.8857658 L22.3430066,6.8857592 C22.3635763,3.46647151 19.6084652,0.677828005 16.189174,0.657031375 C16.1642002,0.657031375 16.1392258,0.657031375 16.1142519,0.657031375 L6.88577678,0.657031375 L6.88577659,0.657031375 C3.45401537,0.67689063 0.676892416,3.45400865 0.657161831,6.88575928 L0.657161831,16.1142344 L0.657161831,16.1141939 C0.676881912,19.5459587 3.45398337,22.3231134 6.88574107,22.3428438 L16.1142162,22.3428438 L16.1142159,22.3428438 C19.5459948,22.3231239 22.3231354,19.5459975 22.3430066,16.1142292 L22.3430066,6.88575406 L22.3430066,6.8857658 Z M16.2347408,20.1865084 L6.8857658,20.1865084 L6.88576568,20.1865084 C4.65618647,20.2057326 2.83303133,18.4140129 2.81349819,16.1844443 C2.81349819,16.161051 2.81349819,16.1376566 2.81349819,16.1142632 L2.81349819,6.64482361 L2.81349819,6.64483002 C2.79427042,4.4152508 4.58598671,2.59209567 6.81556239,2.57256242 C6.83895571,2.57256242 6.8623505,2.57256242 6.8857435,2.57256242 L16.2347185,2.57256242 L16.2347183,2.57256242 C18.4642975,2.55333802 20.2874527,4.34505794 20.3069858,6.57462656 C20.3069858,6.59801987 20.3069858,6.62141467 20.3069858,6.64480802 L20.3069858,16.1142476 L20.3069858,16.1142411 C20.3262136,18.3438203 18.5344973,20.1669754 16.3049216,20.1865084 C16.2815283,20.1865084 16.2581335,20.1865084 16.2347405,20.1865084 L16.2347408,20.1865084 Z M11.560271,5.81351469 L11.5602707,5.81351469 C8.45298022,5.81351469 5.93401427,8.33247005 5.93401427,11.4397711 C5.93401427,14.5470616 8.45296963,17.0660275 11.5602707,17.0660275 C14.6675611,17.0660275 17.1865531,14.5470721 17.1865531,11.4397711 C17.1865531,11.4397711 17.1865531,11.439771 17.1865531,11.439771 L17.1865531,11.439763 C17.1958519,8.34180471 14.6920176,5.82285994 11.5940488,5.81351469 C11.5827874,5.81351469 11.571526,5.81351469 11.5602646,5.81351469 L11.560271,5.81351469 Z M17.3069919,4.24732357 L17.306992,4.24732357 C16.60031,4.30039433 16.0404163,4.86542714 15.9938011,5.57256438 L15.9938011,5.57250982 C15.9938011,6.30442117 16.5871306,6.89775063 17.319042,6.89775063 C18.0509533,6.89775063 18.6442828,6.30442117 18.6442828,5.57250982 C18.6442828,4.84059846 18.0509533,4.247269 17.319042,4.247269 C17.3150443,4.247269 17.3110466,4.247269 17.3070491,4.24732327 L17.3069919,4.24732357 Z M11.560271,14.9094788 L11.5602711,14.9094788 C9.57938606,14.9048421 7.97471193,13.3001704 7.97008818,11.3192959 L7.97008811,11.3192924 C7.933144,9.37342788 9.48062834,7.76602891 11.4264929,7.72910951 C11.471087,7.72826284 11.5156928,7.72826289 11.5602869,7.72910964 L11.5602869,7.72910964 C13.5411719,7.73374641 15.145846,9.33841811 15.1504697,11.3192925 L15.1504698,11.3192963 C15.1874139,13.2651608 13.6399296,14.8725598 11.6940651,14.9094792 C11.6494709,14.9103258 11.6048652,14.9103258 11.560271,14.909479 L11.560271,14.9094788 Z" id="Shape"></path>
                </g>
            </g>
        </g>
    </g>
</svg>