<?xml version="1.0" encoding="UTF-8"?>
<svg width="50px" height="50px" viewBox="0 0 50 50" version="1.1" xmlns="http://www.w3.org/2000/svg" xmlns:xlink="http://www.w3.org/1999/xlink">
    <!-- Generator: Sketch 55.1 (78136) - https://sketchapp.com -->
    <title>Linkedin 2</title>
    <desc>Created with Sketch.</desc>
    <defs>
        <rect id="path-1" x="0" y="0" width="34" height="34"></rect>
        <filter x="-39.7%" y="-30.9%" width="179.4%" height="179.4%" filterUnits="objectBoundingBox" id="filter-2">
            <feOffset dx="0" dy="3" in="SourceAlpha" result="shadowOffsetOuter1"></feOffset>
            <feGaussianBlur stdDeviation="4" in="shadowOffsetOuter1" result="shadowBlurOuter1"></feGaussianBlur>
            <feColorMatrix values="0 0 0 0 0.816491168   0 0 0 0 0.816491168   0 0 0 0 0.816491168  0 0 0 0.5 0" type="matrix" in="shadowBlurOuter1"></feColorMatrix>
        </filter>
    </defs>
    <g id="Page-1" stroke="none" stroke-width="1" fill="none" fill-rule="evenodd">
        <g id="HomePage-Copy" transform="translate(-55.000000, -590.000000)">
            <g id="upper" transform="translate(0.000000, -60.000000)">
                <g id="Icons" transform="translate(63.000000, 655.000000)">
                    <g id="Linkedin-2">
                        <g id="Rectangle">
                            <use fill="black" fill-opacity="1" filter="url(#filter-2)" xlink:href="#path-1"></use>
                            <use fill="#FFFFFF" fill-rule="evenodd" xlink:href="#path-1"></use>
                        </g>
                        <path d="M10.4399977,12.8315695 L5.27999267,12.8315695 L5.27999267,29 L10.4399977,29 L10.4399977,12.8315695 Z M18.3999974,12.8315695 L13.2800033,12.8315695 L13.2800033,29 L18.3999974,29 L18.3999974,19.989466 C18.3999974,19.4564145 18.4663975,19.0067285 18.5999975,18.6420964 L18.5999975,18.6420964 C18.8058535,18.0911011 19.1518243,17.6103832 19.5999966,17.2526219 C20.0263961,16.8879898 20.5735966,16.7052541 21.239996,16.7052541 C22.1735964,16.7052541 22.8263953,17.0277813 23.1999945,17.6736752 C23.6263941,18.2909388 23.8399949,19.1894642 23.8399949,20.3684097 L23.8399949,29 L29,29 L29,19.736825 L28.9599999,19.736825 C28.9599999,17.3225033 28.4264001,15.5119827 27.3600001,14.3052393 C26.2664013,13.0698702 24.8263975,12.4526067 23.039998,12.4526067 C22.3999976,12.4526067 21.8135973,12.5368171 21.2800033,12.7052382 C20.6935972,12.8736592 20.2399988,13.1119751 19.9199974,13.4210278 C19.573597,13.6736593 19.2800033,13.9540793 19.0399972,14.263132 L19.0399974,14.2631318 C18.8016061,14.551832 18.5874684,14.8617671 18.399997,15.1894481 L18.399997,12.8315525 L18.3999974,12.8315695 Z M5.7999988,5.79999936 C5.26639892,6.33305086 5,7.00673566 5,7.82105139 C5,8.63536712 5.25360041,9.29473556 5.7599992,9.79999857 C6.26639799,10.3330501 6.95999853,10.5999979 7.83999879,10.5999979 C8.74639811,10.5999979 9.4535992,10.3330501 9.95999799,9.79999857 C10.4935979,9.32252405 10.7599968,8.66315561 10.7599968,7.82105139 C10.7599968,7.03536601 10.4935979,6.36168359 9.95999799,5.79999936 C9.39999906,5.26694787 8.70639851,5 7.87999839,5 C7.05359827,5 6.35999773,5.26694787 5.7999988,5.79999936 Z" id="Shape" fill="#FFDC0B"></path>
                    </g>
                </g>
            </g>
        </g>
    </g>
</svg>