<?xml version="1.0" encoding="UTF-8"?>
<svg width="24px" height="23px" viewBox="0 0 24 23" version="1.1" xmlns="http://www.w3.org/2000/svg" xmlns:xlink="http://www.w3.org/1999/xlink">
    <!-- Generator: Sketch 55.2 (78181) - https://sketchapp.com -->
    <title>Path</title>
    <desc>Created with Sketch.</desc>
    <g id="Page-1" stroke="none" stroke-width="1" fill="none" fill-rule="evenodd">
        <g id="HomePage-Copy" transform="translate(-707.000000, -3142.000000)" fill="#000000" fill-rule="nonzero">
            <g id="Contact" transform="translate(-1.000000, 0.000000)">
                <g transform="translate(566.000000, 3012.000000)" id="Logos">
                    <g transform="translate(1.000000, 130.000000)">
                        <path d="M152.999093,0.00165266718 L152.999093,0.00165266715 C146.373097,0.000774500143 141.00092,5.14535106 141,11.492413 C140.999317,16.2246083 144.026898,20.4734215 148.62773,22.1969617 C148.525588,21.2898462 148.426907,19.8902018 148.671011,18.9001689 C148.887415,18.0030035 150.078503,13.1888237 150.078503,13.1888237 C150.078503,13.1888237 149.721869,12.4989516 149.721869,11.4840436 C149.721869,9.88705591 150.689629,8.69138811 151.891104,8.69138811 C152.914263,8.69138811 153.411126,9.42769394 153.411126,10.3082759 C153.411126,11.2933337 152.75672,12.7692621 152.415668,14.1324228 C152.128283,15.2783402 153.011212,16.210331 154.190181,16.210331 C156.321329,16.210331 157.960806,14.0544806 157.960806,10.945081 C157.960806,8.19388418 155.893714,6.27020228 152.950619,6.27020228 C149.536628,6.27020228 147.535323,8.72123835 147.535323,11.2601668 C147.535323,12.2501996 147.930044,13.3065663 148.428639,13.8820125 C148.525588,13.9964384 148.5429,14.0942809 148.510007,14.2136818 L148.510006,14.2136839 C148.399973,14.6491761 148.288019,15.0842174 148.174147,15.5188026 C148.120479,15.731071 148.001024,15.7725296 147.774232,15.6746872 C146.274985,15.0063736 145.340119,12.9069069 145.340119,11.2236853 C145.340119,7.59522323 148.087585,4.26858023 153.265702,4.26858023 C157.425855,4.26858023 160.661529,7.10766937 160.661529,10.9069411 C160.661529,14.8670725 158.054292,18.0593894 154.434284,18.0593894 C153.217228,18.0593894 152.076345,17.4524346 151.685087,16.7376873 C151.685087,16.7376873 151.084349,18.9300213 150.938926,19.4689839 C150.668853,20.4689668 149.938273,21.7177017 149.446603,22.480541 L149.446604,22.4805413 C155.774881,24.3617591 162.497015,20.9726872 164.460909,14.9108375 C164.818844,13.8060186 165.000588,12.6557661 165,11.498971 L165,11.4979645 C165.002287,5.14999561 159.631933,0.00217726482 153.004964,0 C153.003232,0 153.0015,0 152.999769,0 L152.999093,0.00165266718 Z" id="Path"></path>
                    </g>
                </g>
            </g>
        </g>
    </g>
</svg>