<?xml version="1.0" encoding="UTF-8"?>
<svg width="23px" height="23px" viewBox="0 0 23 23" version="1.1" xmlns="http://www.w3.org/2000/svg" xmlns:xlink="http://www.w3.org/1999/xlink">
    <!-- Generator: Sketch 55.2 (78181) - https://sketchapp.com -->
    <title>Path</title>
    <desc>Created with Sketch.</desc>
    <g id="Page-1" stroke="none" stroke-width="1" fill="none" fill-rule="evenodd">
        <g id="HomePage-Copy" transform="translate(-674.000000, -3164.000000)" fill="#000000" fill-rule="nonzero">
            <g id="Contact" transform="translate(-1.000000, 0.000000)">
                <g transform="translate(566.000000, 3012.000000)" id="Logos">
                    <g transform="translate(38.000000, 152.000000)">
                        <path d="M82.4991311,0.00165266718 L82.4991308,0.00165266715 C76.1492183,0.000774500143 71.0008815,5.14535106 71,11.492413 C70.9993451,16.2246083 73.9007775,20.4734215 78.3099083,22.1969617 C78.2120215,21.2898462 78.1174529,19.8902018 78.3513857,18.9001689 C78.558773,18.0030035 79.7002324,13.1888237 79.7002324,13.1888237 C79.7002324,13.1888237 79.3584582,12.4989516 79.3584582,11.4840436 C79.3584582,9.88705591 80.285894,8.69138811 81.4373081,8.69138811 C82.417835,8.69138811 82.8939962,9.42769394 82.8939962,10.3082759 C82.8939962,11.2933337 82.2668571,12.7692621 81.9400148,14.1324228 C81.6646045,15.2783402 82.5107445,16.210331 83.6405903,16.210331 C85.68294,16.210331 87.2541058,14.0544806 87.2541058,10.945081 C87.2541058,8.19388418 85.2731427,6.27020228 82.4526761,6.27020228 C79.1809348,6.27020228 77.2630174,8.72123835 77.2630174,11.2601668 C77.2630174,12.2501996 77.6412918,13.3065663 78.119112,13.8820125 C78.2120215,13.9964384 78.2286125,14.0942809 78.1970896,14.2136818 L78.1970891,14.2136839 C78.0916407,14.6491761 77.9843515,15.0842174 77.8752241,15.5188026 C77.823792,15.731071 77.7093143,15.7725296 77.4919724,15.6746872 C76.0551935,15.0063736 75.1592806,12.9069069 75.1592806,11.2236853 C75.1592806,7.59522323 77.7922692,4.26858023 82.7546314,4.26858023 C86.741444,4.26858023 89.8422982,7.10766937 89.8422982,10.9069411 C89.8422982,14.8670725 87.3436966,18.0593894 83.8745226,18.0593894 C82.7081767,18.0593894 81.6148311,17.4524346 81.2398749,16.7376873 C81.2398749,16.7376873 80.6641679,18.9300213 80.5248036,19.4689839 C80.2659844,20.4689668 79.565845,21.7177017 79.0946611,22.480541 L79.0946619,22.4805413 C85.1592614,24.3617591 91.6013058,20.9726872 93.4833711,14.9108375 C93.8263922,13.8060186 94.0005638,12.6557661 94,11.498971 L94,11.4979645 C94.0021918,5.14999561 88.8556026,0.00217726482 82.5047568,0 C82.5030974,0 82.5014379,0 82.4997784,0 L82.4991311,0.00165266718 Z" id="Path"></path>
                    </g>
                </g>
            </g>
        </g>
    </g>
</svg>